<svg width="177" height="45" viewBox="0 0 177 45" xmlns="http://www.w3.org/2000/svg"><g fill="none" fill-rule="evenodd"><path d="M25.817 13.73l-4.535-7.855a.93.93 0 01-.047-.085 2.19 2.19 0 00-.765-.75L20.418 5a1.768 1.768 0 00-.835-.203 1.793 1.793 0 00-.795.193l-.1.055c-.337.2-.615.486-.805.827L11.5 16.927c-.06.103-.123.218-.185.34.12-.024.235-.057.338-.084 4.662-1.35 9.412-2.456 14.164-3.453m4.97-1c4.85-.945 9.72-1.803 14.593-2.633a2.405 2.405 0 011.398 4.56 968.451 968.451 0 00-11.473 5.903l-.413.218c-2.69 1.425-5.382 2.847-8.055 4.305-6.867 3.75-13.662 7.632-20.44 11.544l-.095.053c-.59.352-1.19.883-1.42 1.547a1.282 1.282 0 00-.05.713c.05.196.161.372.318.5.48.415 1.285.513 1.893.513H37.56a2.58 2.58 0 001.28-.293l.065-.035c.209-.133.38-.316.5-.532a1.75 1.75 0 00.197-.84 2.5 2.5 0 00-.28-1.12L32.31 24.977l4.285-2.19L43.642 35h-.015c.517 1.006.79 2.12.795 3.25a6.53 6.53 0 01-.82 3.175 6.25 6.25 0 01-2.207 2.3l-.155.097a7.31 7.31 0 01-3.68.928H7.045c-1.82 0-3.635-.487-5.035-1.693a5.75 5.75 0 01-1.842-2.974 6.015 6.015 0 01.182-3.425c.613-1.77 1.927-3.17 3.5-4.113l.135-.085c6.813-3.933 13.645-7.832 20.553-11.6a585.322 585.322 0 015.927-3.177c-.5.096-1 .196-1.5.3C23.61 19.065 18.25 20.275 13 21.793a7.16 7.16 0 01-3.412.227 4.045 4.045 0 01-3.298-4.195 7.185 7.185 0 011.05-3.29l6.383-11.053A7 7 0 0116.28.89l.415-.25v.015A6.584 6.584 0 0119.58 0a6.474 6.474 0 013.143.795c.057.027.107.055.162.085a6.97 6.97 0 012.465 2.442c.032.048.06.093.09.145l5.348 9.263z" fill="#3C6CE8"/><path d="M168.863 24.942l-2.93-7.077L163 24.943h5.863zm1.347 3.25h-8.58L160 32.15h-4.39l8.237-18.482h4.225l8.263 18.482h-4.5l-1.625-3.957zm-25.073.448c1.849 0 3.323-.515 4.423-1.545 1.1-1.03 1.65-2.425 1.65-4.185 0-1.76-.55-3.154-1.65-4.183-1.1-1.028-2.574-1.543-4.423-1.544h-3.907V28.64h3.907zm-8.185-14.973h8.398a11.78 11.78 0 015.32 1.15 8.585 8.585 0 013.58 3.233 9.105 9.105 0 011.28 4.857 9.108 9.108 0 01-1.28 4.86A8.585 8.585 0 01150.67 31a11.78 11.78 0 01-5.32 1.15h-8.398V13.668zM124.08 28.824a5.853 5.853 0 002.955-.75 5.415 5.415 0 002.075-2.098c1-1.92 1-4.207 0-6.128a5.398 5.398 0 00-2.075-2.097 6.182 6.182 0 00-5.912 0 5.375 5.375 0 00-2.073 2.098 6.612 6.612 0 000 6.127 5.393 5.393 0 002.073 2.098 5.855 5.855 0 002.957.75zm0 3.645a10.79 10.79 0 01-5.19-1.25 9.21 9.21 0 01-3.615-3.418 9.327 9.327 0 01-1.308-4.9 9.325 9.325 0 011.308-4.9 9.21 9.21 0 013.615-3.418 11.43 11.43 0 0110.365 0 9.425 9.425 0 010 16.633 10.715 10.715 0 01-5.175 1.253zm-16.203-12.093c0-1.04-.333-1.837-1-2.39-.666-.553-1.643-.83-2.93-.832h-3.487v6.442h3.485c1.285 0 2.262-.282 2.93-.845.668-.563 1.002-1.355 1.002-2.375zm.08 11.775L104.393 27h-3.933v5.15h-4.277V13.668h8a10.225 10.225 0 014.25.82 6.338 6.338 0 012.787 2.322 6.412 6.412 0 01.975 3.565 6.023 6.023 0 01-3.802 5.835l4.147 5.94h-4.583zM85.34 23.568c1.285 0 2.262-.277 2.93-.83.668-.554 1.002-1.341 1-2.363 0-1.04-.333-1.837-1-2.39-.667-.553-1.643-.83-2.93-.832h-3.485v6.415h3.485zm.237-9.9a10.25 10.25 0 014.266.832 6.343 6.343 0 012.784 2.323 6.413 6.413 0 01.978 3.564 6.425 6.425 0 01-.978 3.55 6.215 6.215 0 01-2.784 2.313c-1.35.566-2.803.841-4.266.808h-3.722v5.092h-4.278V13.668h8zm-16.94 11.274l-2.93-7.077-2.93 7.078h5.86zm1.348 3.25h-8.582l-1.636 3.96h-4.382l8.25-18.482h4.223l8.264 18.483h-4.5l-1.637-3.96zM174.042 39.71a1.183 1.183 0 00-1.19 1.04h2.388a1.157 1.157 0 00-.385-.75 1.178 1.178 0 00-.805-.285m2.127 1.387c0 .068 0 .166-.014.29h-3.31c.05.296.213.56.454.738a1.5 1.5 0 00.908.273 1.53 1.53 0 001.142-.458l.528.605a1.75 1.75 0 01-.715.5 2.82 2.82 0 01-2.197-.102 1.965 1.965 0 01-.816-.768 2.16 2.16 0 01-.287-1.115c-.006-.386.09-.767.278-1.105.18-.324.45-.59.777-.767a2.25 2.25 0 011.117-.278c.385-.007.764.087 1.1.273a1.9 1.9 0 01.75.764 2.3 2.3 0 01.278 1.145l.008.005zm-6.23-3.764h.986v5.844h-.986v-5.845zm-.812 5.614c-.124.1-.267.172-.42.213a1.89 1.89 0 01-.525.072 1.485 1.485 0 01-1.07-.362 1.395 1.395 0 01-.377-1.055v-2.025h-.695V39h.695v-.962h.982V39h1.127v.788h-1.127v2a.673.673 0 00.15.47c.115.112.272.17.433.16a.867.867 0 00.552-.173l.275.708zm-5.537-4.024a1.75 1.75 0 011.277.465c.344.373.518.873.48 1.38v2.41h-.985v-2.285a1.167 1.167 0 00-.25-.83.955.955 0 00-.75-.28c-.319-.018-.63.1-.858.325-.224.26-.337.599-.315.942v2.127h-.984v-5.85h.984v2.128c.168-.178.374-.315.603-.4.253-.093.52-.14.79-.138l.007.006zm-5 4.31a2.462 2.462 0 01-1.175-.278 2.03 2.03 0 01-.81-.767 2.14 2.14 0 01-.293-1.115c-.007-.39.095-.775.293-1.11.194-.32.474-.58.807-.75.363-.19.768-.285 1.178-.278a2.27 2.27 0 011.09.25c.305.161.552.415.705.725l-.75.44a1.195 1.195 0 00-.453-.435 1.315 1.315 0 00-1.5.212 1.445 1.445 0 000 1.913c.407.376 1.004.46 1.5.212a1.2 1.2 0 00.453-.437l.75.443c-.158.31-.407.563-.713.727-.335.17-.707.254-1.083.242v.005zm-5-3.523a1.19 1.19 0 00-.798.28c-.222.192-.363.46-.398.75h2.386a1.157 1.157 0 00-.386-.75 1.175 1.175 0 00-.807-.285l.002.005zm2.127 1.387c0 .068 0 .166-.015.29h-3.3c.049.296.211.56.453.738a1.5 1.5 0 00.91.273c.427.014.84-.152 1.14-.458l.53.605c-.194.224-.44.396-.718.5a2.82 2.82 0 01-2.197-.102 1.965 1.965 0 01-.815-.768 2.16 2.16 0 01-.288-1.115c-.006-.387.09-.768.28-1.105.18-.324.45-.59.775-.767a2.25 2.25 0 011.118-.278c.384-.007.763.087 1.1.273a1.9 1.9 0 01.75.764 2.3 2.3 0 01.274 1.145l.003.005zm-7.175 1.276c.792 0 1.188-.266 1.188-.795 0-.53-.396-.795-1.188-.795h-1.655v1.59h1.655zm-1.655-3.906V40h1.45c.287.018.574-.05.822-.195a.63.63 0 00.288-.563.637.637 0 00-.288-.57 1.46 1.46 0 00-.822-.192l-1.45-.008zm2.882 1.843c.288.087.542.262.726.5.185.251.279.558.267.87.02.44-.188.858-.55 1.107a2.775 2.775 0 01-1.607.39h-2.75v-5.52h2.582a2.54 2.54 0 011.5.383c.344.238.543.635.528 1.052.005.254-.061.505-.19.723-.121.207-.297.377-.508.49l.002.005zM143 38.97l-1.97 4.545c-.128.378-.36.713-.67.965-.28.192-.613.29-.953.28a1.98 1.98 0 01-.622-.102 1.355 1.355 0 01-.5-.285l.395-.723a1.095 1.095 0 00.725.29.688.688 0 00.43-.133c.136-.124.242-.278.31-.45l.07-.164-1.835-4.223h1.025l1.322 3.113 1.33-3.113H143zm-7 3.418c.335.01.66-.12.893-.36.47-.55.47-1.359 0-1.908a1.19 1.19 0 00-.893-.362 1.25 1.25 0 00-.637.162c-.191.108-.347.267-.45.46a1.54 1.54 0 000 1.387c.104.193.26.352.45.46.19.107.404.162.622.16H136zm.11-3.465a2.25 2.25 0 011.097.267c.316.175.576.435.75.75a2.43 2.43 0 010 2.25c-.172.32-.432.585-.75.763a2.25 2.25 0 01-1.097.267 2.035 2.035 0 01-.793-.15 1.533 1.533 0 01-.602-.45v.545h-.938v-5.832h.973v2.15a1.65 1.65 0 01.595-.418 1.94 1.94 0 01.75-.142h.015zm-7.25 4.31c-.338 0-.674-.045-1-.136a2.588 2.588 0 01-.78-.337l.377-.75c.211.136.441.239.683.305.254.074.518.111.783.113.59 0 .882-.155.882-.465a.31.31 0 00-.225-.306 3.68 3.68 0 00-.72-.167 6.02 6.02 0 01-.848-.18 1.293 1.293 0 01-.564-.358 1 1 0 01-.25-.715c-.009-.383.18-.743.5-.955.4-.259.873-.385 1.35-.36.29 0 .581.034.864.1.249.046.488.13.71.25l-.377.75a2.36 2.36 0 00-1.205-.312 1.348 1.348 0 00-.657.127.39.39 0 00-.226.343c-.002.155.1.293.25.335.243.088.495.15.75.185.28.04.555.102.825.182.201.078.38.204.518.368.165.191.249.44.232.693.005.382-.189.74-.512.945a2.43 2.43 0 01-1.387.345h.027zm-4.335-4.31c.47-.023.93.144 1.275.465.344.373.518.873.48 1.38v2.41h-.983v-2.285a1.18 1.18 0 00-.25-.83.965.965 0 00-.75-.28c-.318-.018-.63.1-.857.325-.225.26-.338.599-.315.942v2.128h-.985V38.97h.938v.545c.164-.197.376-.349.614-.443a2.2 2.2 0 01.833-.15zm-5.578 3.465c.337.01.662-.12.898-.36a1.457 1.457 0 000-1.908 1.205 1.205 0 00-.897-.362 1.19 1.19 0 00-.893.362c-.47.55-.47 1.358 0 1.908.233.24.558.37.892.36zm0 .845c-.4.005-.796-.09-1.15-.278a2.02 2.02 0 01-.8-.767 2.185 2.185 0 01-.287-1.116 2.16 2.16 0 01.288-1.11c.192-.318.469-.578.8-.75a2.537 2.537 0 012.307 0 2 2 0 01.8.75c.195.337.295.721.287 1.11a2.16 2.16 0 01-.287 1.115 2 2 0 01-.8.768 2.387 2.387 0 01-1.157.278zm-3.67-4.955a.638.638 0 01-.45-.17.583.583 0 010-.843.638.638 0 01.45-.17.648.648 0 01.448.163c.119.1.186.249.183.404a.597.597 0 01-.178.438.615.615 0 01-.453.178zm-.5.692h.986v4.208h-.986V38.97zm-.81 3.977a1.14 1.14 0 01-.422.213c-.17.049-.346.073-.523.073a1.5 1.5 0 01-1.072-.363 1.405 1.405 0 01-.377-1.055V39.79h-.693V39h.693v-.962h.985V39h1.124v.788h-1.124v2a.673.673 0 00.15.47c.114.112.272.17.432.16a.872.872 0 00.552-.173l.276.703zm-3.817-3.977v4.208h-.938v-.538c-.159.19-.36.34-.59.438a1.91 1.91 0 01-.764.154 1.827 1.827 0 01-1.328-.47 1.85 1.85 0 01-.485-1.39V38.97h.985v2.28c-.027.303.063.605.25.845a.93.93 0 00.727.28c.314.015.62-.104.84-.328.223-.26.334-.598.31-.94V38.98l.993-.01zm-6.35-1.637h.985v5.845h-.985v-5.845zm-3.19 5.055c.337.01.663-.12.9-.36.47-.55.47-1.359 0-1.908a1.215 1.215 0 00-.9-.362 1.19 1.19 0 00-.892.362 1.475 1.475 0 000 1.908c.233.24.557.37.892.36zm0 .845c-.4.005-.796-.09-1.15-.278a2 2 0 01-.797-.767 2.16 2.16 0 01-.288-1.116c-.007-.389.092-.773.287-1.11a2 2 0 01.798-.75 2.543 2.543 0 012.31 0 2 2 0 01.797.75c.196.337.295.721.288 1.11a2.16 2.16 0 01-.288 1.115 2 2 0 01-.797.768 2.398 2.398 0 01-1.16.278zm-5.04.022a4.25 4.25 0 01-1.232-.18 2.59 2.59 0 01-.94-.483l.352-.794c.25.191.532.34.832.437.318.111.652.169.988.17.318.022.636-.047.918-.197a.595.595 0 00.302-.52.5.5 0 00-.168-.39 1.19 1.19 0 00-.43-.25c-.172-.058-.41-.123-.707-.198a8.693 8.693 0 01-1.022-.297 1.67 1.67 0 01-.668-.47 1.25 1.25 0 01-.28-.863 1.47 1.47 0 01.25-.83 1.68 1.68 0 01.75-.595 3.033 3.033 0 011.225-.22c.337 0 .673.041 1 .125.3.073.584.195.843.362l-.333.806a3.082 3.082 0 00-.75-.323 2.87 2.87 0 00-.765-.11 1.59 1.59 0 00-.903.205.633.633 0 00-.294.542.5.5 0 00.17.388c.126.106.272.186.43.235.172.057.41.125.707.197.34.075.674.174 1 .295.26.1.492.26.675.47.195.24.295.542.28.85a1.44 1.44 0 01-.25.828 1.7 1.7 0 01-.75.59c-.39.155-.81.228-1.23.215v.005zm-6.735-.023a3.75 3.75 0 01-1-.135 2.588 2.588 0 01-.78-.337l.38-.75c.21.136.439.24.68.305.255.074.52.111.785.113.587 0 .88-.155.88-.465a.308.308 0 00-.222-.306 3.667 3.667 0 00-.723-.167c-.286-.04-.568-.1-.845-.18a1.3 1.3 0 01-.567-.358 1 1 0 01-.25-.715c-.01-.383.18-.744.5-.955.4-.259.873-.385 1.35-.36.292 0 .583.034.867.1.247.046.486.13.707.25l-.377.75a2.352 2.352 0 00-1.205-.312 1.355 1.355 0 00-.657.127.39.39 0 00-.226.343c-.002.155.1.293.25.335.243.088.495.15.75.185.28.04.557.102.828.182.209.074.395.2.54.368.165.191.249.44.233.693.005.382-.189.74-.513.945a2.42 2.42 0 01-1.385.345zm-4.055 0c-.338.001-.674-.044-1-.135a2.56 2.56 0 01-.78-.347l.377-.75c.21.136.441.24.683.305.254.074.518.111.782.112.588 0 .883-.154.883-.465a.31.31 0 00-.225-.304 3.68 3.68 0 00-.72-.168c-.287-.04-.57-.1-.847-.18a1.3 1.3 0 01-.568-.357 1 1 0 01-.25-.715 1.12 1.12 0 01.5-.956 2.278 2.278 0 011.353-.36c.29 0 .581.034.864.1.249.046.488.13.71.25l-.38.75a2.345 2.345 0 00-1.205-.312 1.36 1.36 0 00-.657.127.387.387 0 00-.222.343c-.003.155.1.293.25.335.242.088.494.15.75.185.28.04.556.102.827.183.212.065.404.185.555.347.165.191.249.44.233.693.005.382-.189.74-.513.945a2.418 2.418 0 01-1.4.375zm-4.373-3.522a1.19 1.19 0 00-.797.28 1.175 1.175 0 00-.4.75h2.388a1.158 1.158 0 00-.385-.75 1.178 1.178 0 00-.805-.28zm2.128 1.387c0 .068 0 .166-.015.29h-3.3c.049.296.211.56.453.738a1.5 1.5 0 00.91.273c.427.013.84-.153 1.14-.458l.527.605a1.75 1.75 0 01-.715.5 2.82 2.82 0 01-2.197-.102 1.965 1.965 0 01-.816-.768 2.16 2.16 0 01-.287-1.115c-.006-.387.09-.768.28-1.105.18-.324.45-.59.775-.767a2.25 2.25 0 011.117-.278c.385-.007.764.087 1.1.273a1.9 1.9 0 01.75.764 2.3 2.3 0 01.278 1.15zm-7-2.175c.47-.022.93.145 1.275.466.346.372.52.872.483 1.38v2.41h-.986v-2.285a1.18 1.18 0 00-.25-.83.955.955 0 00-.75-.28 1.14 1.14 0 00-.86.325c-.224.26-.337.599-.315.942v2.128h-.985V38.97h.938v.545c.165-.197.376-.349.615-.443.265-.103.548-.154.832-.15h.003zm-4.167-.644a.633.633 0 01-.448-.17.577.577 0 010-.843.633.633 0 01.448-.17.65.65 0 01.45.163.52.52 0 01.18.404.595.595 0 01-.175.438.623.623 0 01-.458.178h.003zm-.5.692h.985v4.208h-.985V38.97zm-2.75 4.263a3.75 3.75 0 01-1-.136 2.588 2.588 0 01-.78-.337l.377-.75c.21.136.44.239.682.305.255.074.518.111.783.113.59 0 .882-.155.882-.465a.31.31 0 00-.224-.306 3.68 3.68 0 00-.72-.167 6.1 6.1 0 01-.848-.18 1.292 1.292 0 01-.565-.358 1 1 0 01-.25-.715c-.009-.383.18-.744.5-.955.4-.259.873-.385 1.35-.36.291 0 .581.034.865.1.248.046.488.13.71.25l-.377.75a2.36 2.36 0 00-1.206-.312 1.347 1.347 0 00-.657.127.39.39 0 00-.225.343c-.002.155.1.293.25.335.243.088.494.15.75.185.28.041.556.102.828.182.212.066.403.186.555.348.165.191.249.44.232.693.005.382-.19.74-.513.944-.42.262-.91.39-1.404.366h.005zm-2.59-4.263v4.208h-.938v-.538c-.16.191-.363.341-.593.438-.24.103-.5.156-.762.154a1.828 1.828 0 01-1.328-.47 1.85 1.85 0 01-.484-1.39V38.97h.984v2.28c-.025.303.064.605.25.845a.94.94 0 00.73.28c.314.015.618-.104.838-.328.223-.26.336-.597.313-.94V38.98l.99-.01zm-7.296 3.403c.794 0 1.19-.265 1.19-.795s-.396-.796-1.19-.796h-1.657v1.59h1.657zm-1.652-3.905V40h1.448c.287.018.573-.05.822-.195a.63.63 0 00.288-.563.637.637 0 00-.288-.57 1.455 1.455 0 00-.822-.192l-1.448-.012zm2.883 1.842c.286.088.539.263.722.5.186.251.281.558.27.87.019.44-.19.858-.552 1.108-.369.26-.905.39-1.608.39h-2.75v-5.515h2.582a2.535 2.535 0 011.5.382c.344.238.543.635.528 1.052.005.254-.06.505-.19.723-.12.207-.296.376-.508.49h.005z" fill="#1A1A1A" fill-rule="nonzero"/></g></svg>
